<svg xmlns="http://www.w3.org/2000/svg" viewBox="0 0 376.09 81.43"><defs><style>.cls-1{fill:#4298f5;}</style></defs><g id="Layer_2" data-name="Layer 2"><g id="Layer_1-2" data-name="Layer 1"><path d="M58.32,18.66A9.31,9.31,0,0,1,67.65,28v34.6a9.37,9.37,0,0,1-9.33,9.33H39.57V0H48.9V18.66Zm0,42.12v-31A1.75,1.75,0,0,0,56.51,28H48.9v34.6h7.61A1.82,1.82,0,0,0,58.32,60.78Z"/><path d="M91.2,28H83.59a1.82,1.82,0,0,0-1.81,1.81V71.92H72.45V28a9.32,9.32,0,0,1,9.33-9.33H91.2Z"/><path d="M120.19,28V71.92H101.44a9.37,9.37,0,0,1-9.33-9.33V46.65a9.31,9.31,0,0,1,9.33-9.33h9.42V29.8A1.76,1.76,0,0,0,109,28H96.18V18.66h14.68A9.32,9.32,0,0,1,120.19,28Zm-9.33,18.66h-7.61a1.75,1.75,0,0,0-1.81,1.81V60.78a1.82,1.82,0,0,0,1.81,1.81h7.61Z"/><path d="M143.74,18.66A9.31,9.31,0,0,1,153.06,28V71.92h-9.32V29.8A1.82,1.82,0,0,0,141.92,28h-7.6V71.92H125V18.66Z"/><path class="cls-1" d="M167.19,18.84V72.1h9.33v9.33H157.87V9.51h18.65v9.33Z"/><path class="cls-1" d="M190.65,9.33h-9.33V0h9.33Zm0,62.59h-9.33V18.66h9.33Z"/><path class="cls-1" d="M195.45,9.51h18.66V81.43H195.45V72.1h9.33V18.84h-9.33Z"/><path d="M228.24,71.92h-9.33V62.59h9.33Z"/><path d="M260.94,55.34a14.32,14.32,0,0,1-.73,7.79,14,14,0,0,1-4.8,6.16,13.61,13.61,0,0,1-8.06,2.63H233V62.59h14.31a4.5,4.5,0,0,0,4.17-2.9,4.44,4.44,0,0,0-1.09-5l-13-12.14a14.4,14.4,0,0,1-4.08-7.43,13.91,13.91,0,0,1,5.53-13.94,13.27,13.27,0,0,1,8.06-2.54h11.86V28H246.9a4.51,4.51,0,0,0-3.08,7.79l12.95,12.14A13.94,13.94,0,0,1,260.94,55.34Z"/><path d="M263.93,71.92V0h9.33V71.92Z"/><path d="M305.23,28V71.92H286.48a9.38,9.38,0,0,1-9.33-9.33V46.65a9.31,9.31,0,0,1,9.33-9.33h9.42V29.8A1.76,1.76,0,0,0,294.09,28H281.23V18.66H295.9A9.32,9.32,0,0,1,305.23,28ZM295.9,46.65h-7.61a1.75,1.75,0,0,0-1.81,1.81V60.78a1.82,1.82,0,0,0,1.81,1.81h7.61Z"/><path d="M339.74,18.66l-8,53.26H315.83l-8.06-53.26h9.42l6.61,46.28,6.52-46.28Z"/><polygon class="cls-1" points="13.22 45.29 6.61 39.45 0 45.29 30.16 71.92 30.16 60.24 28.05 58.37 28.07 58.4 28.05 58.37 13.22 45.29 13.22 45.29"/><polygon class="cls-1" points="9.61 36.8 16.22 42.64 30.16 30.34 30.16 18.66 9.61 36.8"/><polygon class="cls-1" points="362.86 45.29 369.47 39.45 376.09 45.29 345.92 71.92 345.92 60.24 348.04 58.37 348.02 58.4 348.04 58.37 362.86 45.29 362.86 45.29"/><polygon class="cls-1" points="366.47 36.8 359.86 42.64 345.92 30.34 345.92 18.66 366.47 36.8"/></g></g></svg>